<?xml version="1.0" encoding="UTF-8"?>
<svg id="Capa_1" data-name="Capa 1" xmlns="http://www.w3.org/2000/svg" viewBox="0 0 841.89 294.78">
  <defs>
    <style>
      .cls-1 {
        fill: none;
      }

      .cls-2 {
        fill: #4b9a89;
      }

      .cls-3 {
        fill: #e07a3b;
      }
    </style>
  </defs>
  <polygon class="cls-2" points="287.63 103.29 245.56 103.23 250.3 84.13 291.17 84.17 287.63 103.29"/>
  <path class="cls-3" d="M272.9,186.31l-48.59-.16,6.27-25.29,47.01.13-4.7,25.33ZM226.01,184.83l45.78.15,4.2-22.66-44.37-.12-5.61,22.63Z"/>
  <path class="cls-3" d="M163.01,185.95l-48.41-.16,9.92-25.23,46.85.13-8.36,25.26ZM116.55,184.47l45.5.15,7.48-22.59-44.1-.12-8.87,22.56Z"/>
  <path class="cls-3" d="M217.88,186.13l-48.5-.16,8.1-25.26,46.93.13-6.53,25.29ZM171.21,184.65l45.64.15,5.84-22.63-44.24-.12-7.25,22.6Z"/>
  <path class="cls-3" d="M266.94,218.43l-50.58-.2,6.78-27.34,48.88.17-5.08,27.37ZM218.06,216.9l47.78.19,4.58-24.71-46.24-.16-6.12,24.67Z"/>
  <polygon class="cls-2" points="340.12 79.73 299.44 79.69 302.54 61.87 342.11 61.89 340.12 79.73"/>
  <polygon class="cls-2" points="337.48 103.36 295.33 103.3 298.66 84.18 339.62 84.22 337.48 103.36"/>
  <path class="cls-3" d="M328.89,186.49l-48.69-.16,4.41-25.33,47.11.13-2.83,25.36ZM281.78,185.01l45.92.15,2.53-22.7-44.5-.12-3.95,22.67Z"/>
  <polygon class="cls-2" points="388.82 79.77 348.05 79.73 349.82 61.89 389.48 61.91 388.82 79.77"/>
  <polygon class="cls-2" points="387.96 103.43 345.71 103.37 347.61 84.23 388.66 84.27 387.96 103.43"/>
  <polygon class="cls-2" points="129.18 128.36 85.83 128.28 95.4 107.82 137.49 107.88 129.18 128.36"/>
  <polygon class="cls-2" points="78.66 128.26 35.42 128.18 46.45 107.74 88.44 107.8 78.66 128.26"/>
  <polygon class="cls-2" points="139.43 103.08 97.65 103.02 106.55 83.99 147.16 84.03 139.43 103.08"/>
  <polygon class="cls-2" points="148.97 79.56 108.64 79.52 116.94 61.78 156.18 61.8 148.97 79.56"/>
  <polygon class="cls-2" points="101.96 79.51 61.71 79.48 71.28 61.76 110.44 61.78 101.96 79.51"/>
  <polygon class="cls-2" points="68.71 59.26 29.78 59.24 39.9 42.61 77.81 42.61 68.71 59.26"/>
  <polygon class="cls-2" points="188.96 103.15 147.08 103.09 154.6 84.04 195.29 84.08 188.96 103.15"/>
  <polygon class="cls-2" points="239.1 103.22 197.13 103.16 203.23 84.08 244.02 84.12 239.1 103.22"/>
  <path class="cls-3" d="M385.58,186.68l-48.8-.16,2.52-25.36,47.21.13-.93,25.4ZM338.25,185.19l46.05.15.83-22.73-44.62-.12-2.25,22.7Z"/>
  <path class="cls-3" d="M384.4,218.9l-50.82-.2,2.72-27.42,49.1.17-1,27.45ZM335.06,217.37l48.06.19.91-24.79-46.51-.16-2.46,24.76Z"/>
  <path class="cls-3" d="M561.2,219.6l-51.22-.2-3.42-27.54,49.48.17,5.17,27.58ZM511.15,218.07l48.44.19-4.67-24.91-46.86-.16,3.09,24.88Z"/>
  <path class="cls-3" d="M555.13,187.23l-49.17-.16-3.16-25.47,47.56.13,4.78,25.5ZM507.14,185.75l46.39.15-4.28-22.84-44.95-.12,2.83,22.81Z"/>
  <path class="cls-3" d="M590.09,104.38l-44.04-.06-4.09-20.57,42.74.04,5.4,20.59ZM547.14,102.99l41.22.06-4.7-17.92-40.09-.04,3.56,17.9Z"/>
  <polygon class="cls-2" points="493.88 84.37 535.2 84.41 538.8 103.65 496.26 103.59 493.88 84.37"/>
  <polygon class="cls-2" points="491.09 61.96 531 61.98 534.35 79.9 493.32 79.86 491.09 61.96"/>
  <path class="cls-3" d="M505.95,252.64l-53.18-.25-1.48-29.71,51.3.21,3.35,29.75ZM454.04,251.06l50.42.24-3.05-27.09-48.71-.2,1.34,27.05Z"/>
  <path class="cls-3" d="M502.21,219.37l-51.08-.2-1.37-27.5,49.34.17,3.1,27.54ZM452.39,217.84l48.32.19-2.8-24.87-46.75-.16,1.23,24.84Z"/>
  <path class="cls-3" d="M498.56,187.05l-49.04-.16-1.26-25.44,47.44.13,2.87,25.47ZM450.79,185.56l46.28.15-2.57-22.8-44.85-.12,1.13,22.77Z"/>
  <polygon class="cls-2" points="445.1 84.32 486.33 84.37 488.49 103.57 446.05 103.51 445.1 84.32"/>
  <path class="cls-3" d="M444.03,252.35l-53.03-.25.75-29.66,51.16.21,1.11,29.71ZM392.36,250.77l50.28.24-1.01-27.04-48.58-.2-.69,27Z"/>
  <path class="cls-3" d="M442.78,219.13l-50.94-.2.7-27.46,49.22.17,1.03,27.5ZM393.21,217.6l48.19.19-.93-24.83-46.63-.16-.63,24.8Z"/>
  <path class="cls-3" d="M441.58,186.86l-48.92-.16.65-25.4,47.32.13.95,25.43ZM394.03,185.37l46.17.15-.85-22.77-44.74-.12-.58,22.74Z"/>
  <path class="cls-3" d="M724.89,187.79l-49.61-.16-8.89-25.58,47.98.13,10.53,25.61ZM676.23,186.3l46.68.15-9.43-22.94-45.21-.12,7.96,22.91Z"/>
  <path class="cls-3" d="M781.21,187.97l-49.77-.16-10.8-25.61,48.13.13,12.44,25.64ZM732.33,186.48l46.76.15-11.15-22.98-45.28-.12,9.67,22.95Z"/>
  <path class="cls-3" d="M667.88,187.6l-49.46-.16-6.96-25.54,47.83.13,8.59,25.57ZM619.44,186.11l46.59.15-7.69-22.91-45.13-.12,6.24,22.88Z"/>
  <path class="cls-3" d="M610.45,187.42l-49.31-.16-5.02-25.51,47.69.13,6.65,25.54ZM562.24,185.93l46.49.15-5.95-22.87-45.04-.12,4.5,22.84Z"/>
  <path class="cls-3" d="M738.26,220.31l-51.7-.21-9.62-27.67,49.92.17,11.39,27.7ZM687.51,218.78l48.76.19-10.29-25.03-47.15-.16,8.69,25Z"/>
  <path class="cls-3" d="M811.52,254.09l-54.01-.26-12.56-29.95,52.09.21,14.49,29.99ZM758.39,252.5l51,.24-13.2-27.32-49.24-.2,11.44,27.28Z"/>
  <path class="cls-3" d="M678.79,220.07l-51.53-.21-7.53-27.63,49.77.17,9.29,27.66ZM628.28,218.54l48.66.19-8.4-24.99-47.06-.16,6.8,24.96Z"/>
  <path class="cls-3" d="M712.31,157.84l-47.7-.12-8.24-23.73,46.18.1,9.76,23.76ZM665.56,156.39l44.76.12-8.66-21.09-43.41-.09,7.31,21.06Z"/>
  <path class="cls-3" d="M657.56,157.7l-47.55-.12-6.45-23.7,46.04.1,7.96,23.73ZM611.03,156.24l44.68.12-7.07-21.06-43.34-.09,5.73,21.03Z"/>
  <polygon class="cls-2" points="395.93 84.28 437.07 84.32 437.79 103.5 395.44 103.44 395.93 84.28"/>
  <g>
    <path class="cls-1" d="M538.84,117.08l.45,2.47,25.11-1.51c-4.71-.62-12.15-.94-22.16-.96h-3.4Z"/>
    <path class="cls-1" d="M431.75,127.8c4.78,0,8.31-.2,10.48-.64.01,0,.02,0,.03,0l-10.67.64h.16Z"/>
    <path class="cls-1" d="M544.21,146.3l7.06.02c10.56.03,17.86-.29,21.68-.94,5.21-.89,9.14-2.52,11.67-4.84,2.53-2.33,3.38-5.21,2.55-8.57-.87-3.49-3.29-6.49-7.19-8.91-2.46-1.53-5.4-2.75-8.77-3.66l-31.6,1.9,4.59,25Z"/>
    <path class="cls-1" d="M446.6,119.34c-1.19-.86-2.69-1.46-4.56-1.84-1.99-.39-5.45-.6-10.31-.6l-11.27-.02.11,9.8,26.5-1.59c1-.86,1.46-1.8,1.41-2.86-.06-1.08-.67-2.02-1.88-2.9Z"/>
    <path class="cls-1" d="M173.68,146.4c7.43.02,14.13-1.06,19.88-3.19,1.08-.4,2.08-.83,3.02-1.27l-38.81,2.34c4.56,1.39,9.91,2.11,15.92,2.12Z"/>
    <polygon class="cls-1" points="336.87 138.61 337.42 133.46 329.46 133.94 336.87 138.61"/>
    <polygon class="cls-1" points="296.71 134.12 313.35 133.12 298.44 123.63 296.71 134.12"/>
    <path class="cls-2" d="M147.51,138.21c-1.94-2.47-2.4-5.09-1.37-7.79.99-2.61,3.32-5.09,6.91-7.4,3.56-2.29,8.11-4.12,13.51-5.44,5.41-1.33,10.9-1.99,16.34-1.98,4.37,0,8.78.51,13.12,1.51,4.37,1,8.29,2.5,11.66,4.45l1.11.64,9.69-4.02-1.24-.68c-4.67-2.56-9.74-4.43-15.07-5.59-5.33-1.16-11.27-1.74-17.69-1.75-7.94-.01-15.48.85-22.44,2.57-7.01,1.74-13.04,4.2-17.93,7.33-4.93,3.16-8.19,6.66-9.68,10.42-1.93,4.86-.65,9.29,3.83,13.16l15.38-.92c-2.69-1.25-4.75-2.75-6.12-4.5Z"/>
    <path class="cls-2" d="M218.33,131.46l.28-.98-36.33-.07-1.86,5.67,23.85.05c-1.01,1.38-2.36,2.64-4.06,3.78l13.71-.82c2.13-2.31,3.61-4.86,4.41-7.63Z"/>
    <path class="cls-3" d="M172.15,150.36c-9.66-.02-17.54-1.26-23.5-3.68l7.76-.47c4.84,1.36,10.44,2.07,16.63,2.08,8.31.02,15.85-1.2,22.36-3.63.79-.29,1.56-.61,2.34-.95l6.74-.41c-1.16.67-2.4,1.31-3.73,1.9-7.69,3.43-17.33,5.17-28.61,5.15Z"/>
    <polygon class="cls-3" points="285.86 149.62 287.85 138.29 292.45 138.01 290.48 149.63 285.86 149.62"/>
    <polygon class="cls-2" points="298.44 123.63 313.35 133.12 326.87 132.31 293.45 111.23 289.13 111.23 284.86 134.83 296.71 134.12 298.44 123.63"/>
    <polygon class="cls-3" points="322.92 136.17 327.76 135.88 339.98 143.62 340.85 135.09 345.06 134.84 343.67 149.32 322.92 136.17"/>
    <polygon class="cls-2" points="350.8 111.33 339.78 111.31 337.61 131.66 349.02 130.98 350.8 111.33"/>
    <polygon class="cls-3" points="375.69 149.84 376.55 132.94 381 132.67 380.22 149.85 375.69 149.84"/>
    <polygon class="cls-2" points="385.23 116.82 401.85 116.85 401.94 111.41 357.69 111.34 357.26 116.77 373.86 116.8 373.14 129.53 384.75 128.83 385.23 116.82"/>
    <path class="cls-2" d="M420.46,116.88l11.27.02c4.85,0,8.32.21,10.31.6,1.87.37,3.36.97,4.56,1.84,1.21.87,1.82,1.82,1.88,2.9.05,1.06-.41,1.99-1.41,2.86l12.81-.77c.17-.66.25-1.34.2-2.05-.18-2.66-1.89-4.92-5.06-6.74-3.13-1.8-7.16-2.98-11.98-3.53-3.11-.35-8.72-.53-17.17-.55l-16.62-.03-.08,15.95,11.4-.68-.11-9.8Z"/>
    <path class="cls-3" d="M452.28,150.03l-28.45-18.42h-6.8s.12,18.33.12,18.33h-4.39s0-19.19,0-19.19l19.09-1.15c5.04,0,8.76-.22,11.36-.68l9.38-.57c-1.54.89-3.49,1.61-5.84,2.13-2.65.59-6.25.96-10.68,1.09l-6.8.2,28.35,18.27h-5.34Z"/>
    <polygon class="cls-3" points="478.56 150.1 476.44 126.92 480.67 126.66 480.86 128.64 516.59 128.71 516.9 130.78 481.07 130.71 482.75 147.92 519.46 148.01 519.79 150.2 478.56 150.1"/>
    <polygon class="cls-2" points="483.26 116.99 518.7 117.05 517.86 111.59 471.52 111.52 472.56 123.56 483.87 122.88 483.26 116.99"/>
    <polygon class="cls-3" points="225.35 149.47 227.31 141.94 231.68 141.67 230.25 147.31 266.55 147.4 266.1 149.57 225.35 149.47"/>
    <polygon class="cls-2" points="237.71 132.03 273.25 132.1 274.37 126.43 239.12 126.36 241.56 116.57 276.62 116.63 277.69 111.21 231.85 111.14 224.6 138.45 236.28 137.75 237.71 132.03"/>
    <path class="cls-2" d="M538.84,117.08h3.4c10.01.02,17.45.34,22.16.96l18.86-1.13c-4.02-1.71-8.63-3-13.81-3.87-5.5-.93-13.74-1.39-25.2-1.41l-17.32-.03,1.44,8.6,10.92-.66-.45-2.47Z"/>
    <path class="cls-3" d="M537.13,150.24l-4.62-26.71,3.89-.23,4.44,24.9,10.79.03c11.13.03,18.61-.31,22.86-1.03,6.01-1.03,10.52-2.92,13.43-5.6,2.86-2.65,3.82-5.89,2.88-9.62-.98-3.87-3.71-7.2-8.1-9.91-.8-.49-1.64-.96-2.53-1.4l5.27-.32c.34.2.67.4.98.6,4.7,3.01,7.66,6.7,8.78,10.97.97,3.73.22,7.07-2.25,9.94-2.48,2.87-6.15,5.03-10.93,6.39-4.83,1.38-12.1,2.08-21.59,2.05l-23.3-.06Z"/>
    <polygon class="cls-2" points="114.91 165.97 113.68 165.47 126.35 134.2 84.1 134.11 77.8 147.58 76.6 147.02 83.25 132.78 128.32 132.87 114.91 165.97"/>
    <polygon class="cls-3" points="648.29 130.07 602.5 129.97 599.2 117.85 600.48 117.5 603.52 128.64 646.44 128.73 634.88 94.28 636.14 93.86 648.29 130.07"/>
  </g>
</svg>