<?xml version="1.0" encoding="UTF-8"?>
<svg id="Capa_1" data-name="Capa 1" xmlns="http://www.w3.org/2000/svg" viewBox="0 0 841.89 123.11">
  <defs>
    <style>
      .cls-1 {
        fill: none;
      }

      .cls-2 {
        fill: #4b9a89;
      }

      .cls-3 {
        fill: #e07a3b;
      }
    </style>
  </defs>
  <path class="cls-1" d="M710.8,31.64l.76,4.12,41.93-2.52c-7.86-1.03-20.29-1.57-37.01-1.6h-5.68Z"/>
  <path class="cls-1" d="M531.92,49.53c7.99.02,13.89-.34,17.51-1.06.02,0,.03,0,.05-.01l-17.83,1.07h.26Z"/>
  <path class="cls-1" d="M719.76,80.43l11.79.03c17.64.04,29.83-.49,36.22-1.56,8.71-1.49,15.27-4.22,19.49-8.09,4.23-3.89,5.65-8.71,4.26-14.31-1.45-5.84-5.5-10.83-12-14.87-4.11-2.55-9.01-4.59-14.65-6.12l-52.77,3.18,7.67,41.76Z"/>
  <path class="cls-1" d="M556.73,35.4c-1.99-1.44-4.49-2.45-7.61-3.07-3.32-.66-9.11-1-17.22-1.01l-18.83-.03.19,16.37,44.26-2.66c1.66-1.44,2.44-3,2.35-4.77-.09-1.8-1.12-3.38-3.14-4.84Z"/>
  <path class="cls-1" d="M100.87,80.6c12.41.03,23.6-1.77,33.21-5.33,1.81-.67,3.47-1.38,5.04-2.12l-64.83,3.9c7.62,2.32,16.56,3.52,26.58,3.55Z"/>
  <polygon class="cls-1" points="373.44 67.6 374.36 59 361.06 59.79 373.44 67.6"/>
  <polygon class="cls-1" points="306.37 60.09 334.15 58.42 309.25 42.57 306.37 60.09"/>
  <path class="cls-2" d="M57.16,66.93c-3.24-4.13-4-8.51-2.29-13.01,1.65-4.35,5.54-8.51,11.54-12.36,5.95-3.83,13.54-6.88,22.56-9.09,9.03-2.21,18.21-3.32,27.29-3.31,7.3.01,14.66.86,21.91,2.52,7.29,1.67,13.84,4.17,19.48,7.43l1.85,1.07,16.18-6.71-2.08-1.14c-7.8-4.27-16.27-7.4-25.17-9.34-8.89-1.93-18.83-2.91-29.54-2.93-13.26-.02-25.86,1.42-37.48,4.3-11.71,2.9-21.78,7.01-29.94,12.25-8.23,5.28-13.69,11.13-16.17,17.4-3.22,8.11-1.09,15.51,6.39,21.98l25.69-1.54c-4.49-2.08-7.93-4.59-10.22-7.52Z"/>
  <path class="cls-2" d="M175.44,55.65l.47-1.63-60.69-.12-3.11,9.47,39.84.09c-1.68,2.31-3.94,4.4-6.77,6.32l22.91-1.38c3.56-3.86,6.02-8.11,7.36-12.74Z"/>
  <path class="cls-3" d="M98.31,87.21c-16.13-.04-29.29-2.11-39.24-6.14l12.97-.78c8.09,2.28,17.44,3.45,27.78,3.47,13.88.03,26.47-2.01,37.35-6.06,1.32-.49,2.61-1.01,3.9-1.58l11.25-.68c-1.93,1.12-4.01,2.18-6.22,3.17-12.84,5.74-28.95,8.64-47.79,8.6Z"/>
  <polygon class="cls-3" points="288.24 85.98 291.57 67.05 299.26 66.59 295.96 86 288.24 85.98"/>
  <polygon class="cls-2" points="309.25 42.57 334.15 58.42 356.74 57.07 300.93 21.87 293.71 21.86 286.57 61.28 306.37 60.09 309.25 42.57"/>
  <polygon class="cls-3" points="350.14 63.52 358.23 63.03 378.65 75.96 380.1 61.71 387.12 61.29 384.8 85.49 350.14 63.52"/>
  <polygon class="cls-2" points="396.71 22.02 378.31 21.99 374.68 55.99 393.73 54.84 396.71 22.02"/>
  <polygon class="cls-3" points="438.28 86.35 439.73 58.12 447.15 57.67 445.86 86.37 438.28 86.35"/>
  <polygon class="cls-2" points="454.22 31.19 481.98 31.24 482.13 22.16 408.23 22.04 407.5 31.11 435.23 31.16 434.03 52.43 453.42 51.26 454.22 31.19"/>
  <path class="cls-2" d="M513.07,31.29l18.83.03c8.11.01,13.9.35,17.22,1.01,3.13.62,5.62,1.62,7.61,3.07,2.02,1.46,3.04,3.04,3.14,4.84.09,1.77-.68,3.33-2.35,4.77l21.39-1.28c.29-1.1.41-2.25.33-3.43-.3-4.44-3.15-8.23-8.45-11.26-5.23-3-11.96-4.98-20.02-5.9-5.19-.59-14.57-.89-28.67-.91l-27.76-.04-.13,26.63,19.04-1.14-.19-16.37Z"/>
  <path class="cls-3" d="M566.21,86.67l-47.52-30.77-11.36-.02.19,30.65-7.32-.02v-32.03s31.88-1.92,31.88-1.92c8.42.01,14.63-.36,18.98-1.14l15.66-.94c-2.57,1.49-5.84,2.68-9.76,3.56-4.43.99-10.44,1.61-17.85,1.82l-11.35.33,47.36,30.52-8.92-.02Z"/>
  <polygon class="cls-3" points="610.11 86.78 606.57 48.06 613.63 47.63 613.96 50.93 673.63 51.05 674.14 54.51 614.29 54.39 617.1 83.14 678.43 83.29 678.97 86.95 610.11 86.78"/>
  <polygon class="cls-2" points="617.96 31.48 677.16 31.58 675.75 22.47 598.35 22.34 600.09 42.45 618.98 41.32 617.96 31.48"/>
  <polygon class="cls-3" points="187.17 85.73 190.44 73.15 197.74 72.71 195.35 82.12 255.99 82.27 255.25 85.9 187.17 85.73"/>
  <polygon class="cls-2" points="207.82 56.59 267.17 56.72 269.05 47.25 210.17 47.14 214.25 30.78 272.8 30.88 274.6 21.82 198.02 21.7 185.92 67.32 205.44 66.15 207.82 56.59"/>
  <path class="cls-2" d="M710.8,31.64h5.68c16.72.04,29.15.58,37.01,1.61l31.51-1.89c-6.71-2.85-14.42-5.02-23.06-6.46-9.19-1.56-22.96-2.32-42.1-2.35l-28.93-.05,2.41,14.36,18.24-1.1-.76-4.12Z"/>
  <path class="cls-3" d="M707.93,87.02l-7.71-44.61,6.5-.39,7.42,41.58,18.01.04c18.59.04,31.09-.52,38.18-1.72,10.03-1.72,17.58-4.87,22.43-9.35,4.78-4.42,6.39-9.84,4.81-16.07-1.64-6.46-6.2-12.02-13.54-16.55-1.33-.82-2.74-1.6-4.23-2.34l8.81-.53c.57.34,1.12.67,1.64,1.01,7.86,5.03,12.8,11.19,14.66,18.32,1.62,6.22.37,11.82-3.75,16.6-4.13,4.79-10.28,8.39-18.25,10.68-8.07,2.31-20.21,3.47-36.06,3.43l-38.93-.1Z"/>
</svg>